<svg width="25" height="25" viewBox="0 0 25 25" fill="none" xmlns="http://www.w3.org/2000/svg">
  <path d="M17.9341 18.825C18.4645 18.825 18.9732 19.0357 19.3483 19.4108C19.7234 19.7859 19.9341 20.2946 19.9341 20.825C19.9341 21.3554 19.7234 21.8641 19.3483 22.2392C18.9732 22.6143 18.4645 22.825 17.9341 22.825C17.4036 22.825 16.8949 22.6143 16.5199 22.2392C16.1448 21.8641 15.9341 21.3554 15.9341 20.825C15.9341 19.715 16.8241 18.825 17.9341 18.825ZM1.93408 2.825H5.20408L6.14408 4.825H20.9341C21.1993 4.825 21.4537 4.93035 21.6412 5.11789C21.8287 5.30543 21.9341 5.55978 21.9341 5.825C21.9341 5.995 21.8841 6.165 21.8141 6.325L18.2341 12.795C17.8941 13.405 17.2341 13.825 16.4841 13.825H9.03408L8.13408 15.455L8.10408 15.575C8.10408 15.6413 8.13042 15.7049 8.17731 15.7518C8.22419 15.7987 8.28778 15.825 8.35408 15.825H19.9341V17.825H7.93408C7.40365 17.825 6.89494 17.6143 6.51987 17.2392C6.1448 16.8641 5.93408 16.3554 5.93408 15.825C5.93408 15.475 6.02408 15.145 6.17408 14.865L7.53408 12.415L3.93408 4.825H1.93408V2.825ZM7.93408 18.825C8.46452 18.825 8.97322 19.0357 9.3483 19.4108C9.72337 19.7859 9.93408 20.2946 9.93408 20.825C9.93408 21.3554 9.72337 21.8641 9.3483 22.2392C8.97322 22.6143 8.46452 22.825 7.93408 22.825C7.40365 22.825 6.89494 22.6143 6.51987 22.2392C6.1448 21.8641 5.93408 21.3554 5.93408 20.825C5.93408 19.715 6.82408 18.825 7.93408 18.825ZM16.9341 11.825L19.7141 6.825H7.07408L9.43408 11.825H16.9341Z" fill="#1D2939"/>
</svg>
