<svg
  fill="none"
  height="24"
  viewBox="0 0 30 24"
  width="30"
  xmlns="http://www.w3.org/2000/svg"
>
  <path
    d="M26.4988 12.2532C26.4988 11.5054 26.437 10.7537 26.305 10.0181H15.7205V14.2538H21.7817C21.5302 15.6199 20.7221 16.8284 19.5387 17.5963V20.3447H23.1548C25.2783 18.4289 26.4988 15.5997 26.4988 12.2532Z"
    fill="#4285F4"
  />
  <path
    d="M15.7219 23C18.7484 23 21.3008 22.0259 23.1604 20.3446L19.5442 17.5962C18.5381 18.2671 17.2393 18.647 15.726 18.647C12.7985 18.647 10.3162 16.711 9.42558 14.1082H5.69397V16.9414C7.59895 20.6558 11.479 23 15.7219 23Z"
    fill="#34A853"
  />
  <path
    d="M9.42143 14.108C8.95137 12.7419 8.95137 11.2626 9.42143 9.8965V7.06323H5.69395C4.10234 10.1713 4.10234 13.8332 5.69395 16.9413L9.42143 14.108Z"
    fill="#FBBC04"
  />
  <path
    d="M15.7219 5.3537C17.3217 5.32945 18.868 5.91955 20.0266 7.00274L23.2305 3.8623C21.2018 1.99501 18.5093 0.968407 15.7219 1.00074C11.479 1.00074 7.59895 3.34495 5.69397 7.06336L9.42145 9.89663C10.308 7.2897 12.7943 5.3537 15.7219 5.3537Z"
    fill="#EA4335"
  />
</svg>
