<svg width="25" height="26" viewBox="0 0 25 26" fill="none" xmlns="http://www.w3.org/2000/svg">
  <path d="M13.0341 19.375L12.9341 19.475L12.8241 19.375C8.07408 15.065 4.93408 12.215 4.93408 9.325C4.93408 7.325 6.43408 5.825 8.43408 5.825C9.97408 5.825 11.4741 6.825 12.0041 8.185H13.8641C14.3941 6.825 15.8941 5.825 17.4341 5.825C19.4341 5.825 20.9341 7.325 20.9341 9.325C20.9341 12.215 17.7941 15.065 13.0341 19.375ZM17.4341 3.825C15.6941 3.825 14.0241 4.635 12.9341 5.905C11.8441 4.635 10.1741 3.825 8.43408 3.825C5.35408 3.825 2.93408 6.235 2.93408 9.325C2.93408 13.095 6.33408 16.185 11.4841 20.855L12.9341 22.175L14.3841 20.855C19.5341 16.185 22.9341 13.095 22.9341 9.325C22.9341 6.235 20.5141 3.825 17.4341 3.825Z" fill="#101828"/>
</svg>
